<?xml version="1.0" standalone="no"?><!DOCTYPE svg PUBLIC "-//W3C//DTD SVG 1.1//EN" "http://www.w3.org/Graphics/SVG/1.1/DTD/svg11.dtd"><svg t="1636354229569" class="icon" viewBox="0 0 1024 1024" version="1.1" xmlns="http://www.w3.org/2000/svg" p-id="6371" xmlns:xlink="http://www.w3.org/1999/xlink" width="200" height="200"><defs><style type="text/css"></style></defs><path d="M0 0m102.4 0l819.2 0q102.4 0 102.4 102.4l0 819.2q0 102.4-102.4 102.4l-819.2 0q-102.4 0-102.4-102.4l0-819.2q0-102.4 102.4-102.4Z" fill="#1677FF" p-id="6372"></path><path d="M563.199 631.751v-32.11h61.344V386.16c58.129 35.68 149.55 95.977 245.856 36.096 0.594 179.346-224.712 212.409-307.2 209.494z" fill="#98C3FF" p-id="6373"></path><path d="M296.959 846.902V246.769h50.166c88.05-36.728 178.349 4.92 246.794 43.81v246.654l-14.992 4.201c-51.896 0-182.098-63.854-222.46-3.42l-0.116 308.948-59.392-0.06z" fill="#FFFFFF" p-id="6374"></path></svg>