<?xml version="1.0" standalone="no"?><!DOCTYPE svg PUBLIC "-//W3C//DTD SVG 1.1//EN" "http://www.w3.org/Graphics/SVG/1.1/DTD/svg11.dtd"><svg t="1635820760371" class="icon" viewBox="0 0 1024 1024" version="1.1" xmlns="http://www.w3.org/2000/svg" p-id="6457" xmlns:xlink="http://www.w3.org/1999/xlink" width="200" height="200"><defs><style type="text/css"></style></defs><path d="M768.371712 552.96c-40.96-10.24-20.48-30.72-20.48-30.72s40.96-66.56-10.24-112.64c-56.32-56.32-199.68 5.12-199.68 5.12-51.2 20.48-40.96-5.12-30.72-46.08 0-51.2-15.36-133.12-163.84-81.92-143.36 51.2-266.24 225.28-266.24 225.28C-9.868288 624.64 0.371712 716.8 0.371712 716.8c20.48 194.56 230.4 250.88 394.24 266.24 168.96 15.36 404.48-61.44 471.04-209.92 71.68-153.6-56.32-209.92-97.28-220.16zM404.851712 921.6c-168.96 10.24-307.2-76.8-307.2-189.44s138.24-204.8 307.2-209.92c168.96-10.24 307.2 61.44 307.2 174.08 5.12 112.64-133.12 220.16-307.2 225.28z" fill="#E52122" p-id="6458"></path><path d="M374.131712 593.92c-168.96 20.48-153.6 174.08-153.6 174.08s0 56.32 51.2 81.92c102.4 56.32 204.8 20.48 256-46.08s15.36-230.4-153.6-209.92zM328.051712 819.2c-30.72 5.12-56.32-15.36-56.32-40.96s20.48-56.32 56.32-56.32c35.84-5.12 61.44 15.36 61.44 46.08 0 20.48-25.6 46.08-61.44 51.2z m102.4-87.04c-10.24 10.24-25.6 5.12-30.72-5.12-5.12-10.24-5.12-25.6 5.12-30.72 10.24-10.24 25.6-5.12 30.72 5.12 10.24 10.24 5.12 25.6-5.12 30.72z" fill="#040000" p-id="6459"></path><path d="M1014.131712 465.92c-5.12 20.48-20.48 30.72-40.96 30.72-10.24 0-20.48-5.12-30.72-10.24-10.24-10.24-10.24-20.48-10.24-30.72v-5.12c0-15.36 5.12-25.6 5.12-40.96 0-122.88-97.28-220.16-220.16-220.16-25.6 0-40.96-20.48-40.96-40.96s15.36-46.08 40.96-46.08c168.96 0 307.2 138.24 307.2 307.2 0 15.36 0 30.72-5.12 46.08 0 0 0 5.12-5.12 10.24z m-128-40.96v5.12c0 15.36-15.36 30.72-35.84 30.72-20.48 0-35.84-15.36-35.84-35.84v-5.12c5.12-30.72-5.12-56.32-25.6-76.8-20.48-20.48-46.08-35.84-76.8-35.84-20.48 0-35.84-15.36-35.84-35.84s15.36-35.84 35.84-35.84c92.16 0 168.96 76.8 168.96 168.96 5.12 10.24 5.12 15.36 5.12 20.48z" fill="#F49D25" p-id="6460"></path></svg>